<?xml version="1.0" encoding="utf-8"?>
<!-- Generator: Adobe Illustrator 15.0.0, SVG Export Plug-In . SVG Version: 6.00 Build 0)  -->
<!DOCTYPE svg PUBLIC "-//W3C//DTD SVG 1.1//EN" "http://www.w3.org/Graphics/SVG/1.1/DTD/svg11.dtd">
<svg version="1.1"  xmlns="http://www.w3.org/2000/svg" xmlns:xlink="http://www.w3.org/1999/xlink" x="0px" y="0px"
	 width="48px" height="48px" viewBox="0 0 48 48" enable-background="new 0 0 48 48" xml:space="preserve">
<g>
	<circle fill="#BBDEFB" cx="29.5" cy="13.5" r="8.5"/>
	<circle fill="#BBDEFB" cx="37" cy="21.893" r="7"/>
	<circle fill="#BBDEFB" cx="11" cy="22" r="7"/>
	<circle fill="#BBDEFB" cx="17.5" cy="14.5" r="6.5"/>
	<circle fill="#BBDEFB" cx="25" cy="19.893" r="7"/>
	<path fill="#BBDEFB" d="M7,25c0,2.209,1.791,4,4,4h25c2.209,0,4-1.791,4-4v-1c0-2.209-1.791-4-4-4H11c-2.209,0-4,1.791-4,4V25z"/>
</g>
<g>
	<path fill="#2196F3" d="M34.95,37.15c-1.132,1.133-2.968,1.133-4.101,0c-1.134-1.131-1.133-2.969,0-4.1C31.982,31.917,37,31,37,31
		S36.082,36.02,34.95,37.15z"/>
	<path fill="#2196F3" d="M23.95,41.15c-1.132,1.132-2.968,1.132-4.101,0c-1.133-1.133-1.132-2.969,0-4.101
		c1.133-1.133,6.152-2.05,6.152-2.05S25.082,40.02,23.95,41.15z"/>
	<path fill="#2196F3" d="M13.95,37.15c-1.132,1.133-2.968,1.133-4.101,0c-1.133-1.131-1.132-2.969,0-4.1
		c1.132-1.133,6.151-2.05,6.151-2.05S15.082,36.02,13.95,37.15z"/>
</g>
</svg>
